<?xml version="1.0" encoding="UTF-8"?>
<svg version="1.1" xmlns="http://www.w3.org/2000/svg" width="591" height="218">
<path d="M0 0 C195.03 0 390.06 0 591 0 C591 71.94 591 143.88 591 218 C395.97 218 200.94 218 0 218 C0 146.06 0 74.12 0 0 Z " fill="#3D3100" transform="translate(0,0)"/>
<path d="M0 0 C5.87155408 -0.07433795 11.74283219 -0.12869117 17.61474609 -0.16479492 C19.61088841 -0.17985098 21.60699781 -0.20030027 23.60302734 -0.22631836 C26.47762185 -0.26284161 29.35177772 -0.27975837 32.2265625 -0.29296875 C33.55815903 -0.31619453 33.55815903 -0.31619453 34.91665649 -0.33988953 C40.05416242 -0.3412747 43.52541345 0.18166103 48 3 C49.61562545 4.61562545 49.36365862 6.32990994 49.5 8.5625 C49.46115408 13.97762168 47.64956422 16.54686854 44.01953125 20.40625 C41.78681073 22.16824221 39.67733487 23.07518657 37 24 C37.56847656 24.84820312 38.13695312 25.69640625 38.72265625 26.5703125 C44.15821647 34.78867149 48.75296457 43.10983257 53 52 C53.99632523 54.00183317 54.99518943 56.00241252 56 58 C59.51625563 56.82791479 60.21489591 55.60867768 61.91796875 52.42578125 C63.47541519 48.9341775 64.62072215 45.33243784 65.78588867 41.69384766 C67.90101051 35.14323053 70.27774718 28.6973271 72.6875 22.25 C73.08026123 21.18982666 73.47302246 20.12965332 73.87768555 19.03735352 C74.2519165 18.04018311 74.62614746 17.0430127 75.01171875 16.015625 C75.34647217 15.12133789 75.68122559 14.22705078 76.02612305 13.30566406 C77 11 77 11 79 8 C79.39013716 6.0103005 79.73202649 4.00980131 80 2 C79.01 1.67 78.02 1.34 77 1 C77 0.67 77 0.34 77 0 C83.93 0 90.86 0 98 0 C97.67 0.66 97.34 1.32 97 2 C97.23954046 10.17099134 99.93060022 17.5722552 102.55541992 25.22875977 C103.30861618 27.42616916 104.04900621 29.62755864 104.78710938 31.83007812 C109.3226469 47.5546305 109.3226469 47.5546305 118 61 C110.74 61 103.48 61 96 61 C96.99 60.01 97.98 59.02 99 58 C99.90418456 53.26728623 99.51155574 49.10837077 97.5 44.75 C93.28368682 40.1120555 88.18134249 35.62666908 82 34 C78.79129767 33.83242243 78.79129767 33.83242243 76 34 C75.81824219 34.64066406 75.63648438 35.28132813 75.44921875 35.94140625 C74.27144466 39.9941571 73.11635367 43.92754817 71.3125 47.75 C69.91484265 51.21086581 69.42696197 53.31618409 70 57 C71.32 58.32 72.64 59.64 74 61 C62.12 61 50.24 61 38 61 C38.99 60.01 39.98 59.02 41 58 C41 47.09313315 34.17433134 38.47457243 28 30 C24.37 30.66 20.74 31.32 17 32 C17.11362874 35.93813307 17.24038724 39.87507674 17.375 43.8125 C17.4059375 44.93205078 17.436875 46.05160156 17.46875 47.20507812 C17.50742188 48.27822266 17.54609375 49.35136719 17.5859375 50.45703125 C17.63306885 51.9416687 17.63306885 51.9416687 17.68115234 53.45629883 C17.83773433 56.24075094 17.83773433 56.24075094 20 59 C20.99 59.66 21.98 60.32 23 61 C15.41 61 7.82 61 0 61 C2.475 58.525 2.475 58.525 5 56 C5.7421972 53.49598912 5.7421972 53.49598912 5.64697266 50.83007812 C5.67061386 49.32326477 5.67061386 49.32326477 5.69473267 47.78601074 C5.68461151 46.7119397 5.67449036 45.63786865 5.6640625 44.53125 C5.66884613 43.41818481 5.67362976 42.30511963 5.67855835 41.1583252 C5.68195643 38.80817245 5.67276063 36.45797238 5.65185547 34.10791016 C5.62509136 30.51227338 5.65160934 26.91975852 5.68359375 23.32421875 C5.68028964 21.03905561 5.67388339 18.75389442 5.6640625 16.46875 C5.67418365 15.39467896 5.68430481 14.32060791 5.69473267 13.21398926 C5.71756482 6.90255937 5.71756482 6.90255937 2.45849609 1.78320312 C1.64719238 1.19474609 0.83588867 0.60628906 0 0 Z " fill="#BCF76D" transform="translate(79,78)"/>
<path d="M0 0 C7.59 0 15.18 0 23 0 C21.35 1.32 19.7 2.64 18 4 C17.18432822 7.25550916 17.18432822 7.25550916 17.1875 10.75 C17.0946875 13.84375 17.0946875 13.84375 17 17 C25.58 17 34.16 17 43 17 C42.938125 14.9375 42.87625 12.875 42.8125 10.75 C42.76029297 9.00976562 42.76029297 9.00976562 42.70703125 7.234375 C42.20297268 3.30213346 42.20297268 3.30213346 37 0 C44.59 0 52.18 0 60 0 C58.35 1.65 56.7 3.3 55 5 C54.25857815 7.45589574 54.25857815 7.45589574 54.35302734 10.06225586 C54.33726654 11.04354965 54.32150574 12.02484344 54.30526733 13.03587341 C54.31538849 14.08493362 54.32550964 15.13399384 54.3359375 16.21484375 C54.33115387 17.30334122 54.32637024 18.39183868 54.32144165 19.51332092 C54.31804361 21.81219937 54.32723917 24.1111262 54.34814453 26.40991211 C54.37488323 29.92216235 54.34840426 33.43120909 54.31640625 36.94335938 C54.31971087 39.17969453 54.32611817 41.41602771 54.3359375 43.65234375 C54.32581635 44.69937973 54.31569519 45.74641571 54.30526733 46.82518005 C54.32890854 48.30184898 54.32890854 48.30184898 54.35302734 49.80834961 C54.35700531 50.66818954 54.36098328 51.52802948 54.36508179 52.41392517 C55.02624879 55.92321931 55.02624879 55.92321931 60 61 C52.74 61 45.48 61 38 61 C39.32 59.68 40.64 58.36 42 57 C42.41782599 54.12305502 42.60476278 51.61293004 42.609375 48.734375 C42.62591125 47.94097717 42.64244751 47.14757935 42.65948486 46.33013916 C42.70795616 43.80334731 42.72933287 41.27715719 42.75 38.75 C42.77816057 37.03382391 42.80808812 35.31767584 42.83984375 33.6015625 C42.91703442 29.4007652 42.95755691 25.20186631 43 21 C34.42 21 25.84 21 17 21 C17.02808725 26.05570505 17.07111073 31.10665619 17.15258789 36.16113281 C17.17576475 37.87978622 17.19016291 39.5985816 17.19555664 41.31738281 C17.20484912 43.79061309 17.24584055 46.26161172 17.29296875 48.734375 C17.2890361 49.50118591 17.28510345 50.26799683 17.28105164 51.05804443 C17.29501411 53.51848603 17.29501411 53.51848603 18 57 C19.65 58.32 21.3 59.64 23 61 C15.41 61 7.82 61 0 61 C1.32 60.01 2.64 59.02 4 58 C4.97826482 55.06520555 5.12660743 53.17382848 5.12939453 50.1171875 C5.13254669 49.12605957 5.13569885 48.13493164 5.13894653 47.11376953 C5.1369223 46.04497559 5.13489807 44.97618164 5.1328125 43.875 C5.13376923 42.77655762 5.13472595 41.67811523 5.13571167 40.54638672 C5.13639245 38.22298119 5.13454525 35.89957376 5.13037109 33.57617188 C5.12502145 30.01427957 5.13031956 26.45251337 5.13671875 22.890625 C5.13605795 20.63541639 5.13477675 18.38020785 5.1328125 16.125 C5.13483673 15.05620605 5.13686096 13.98741211 5.13894653 12.88623047 C5.13579437 11.89510254 5.13264221 10.90397461 5.12939453 9.8828125 C5.12859894 9.01027832 5.12780334 8.13774414 5.12698364 7.23876953 C5.08833692 4.82834899 5.08833692 4.82834899 4 2 C2.68 1.34 1.36 0.68 0 0 Z " fill="#BBF76D" transform="translate(261,78)"/>
<path d="M0 0 C7.26 0 14.52 0 22 0 C21.67 0.66 21.34 1.32 21 2 C20.34 2 19.68 2 19 2 C20.12529591 5.6713565 21.25558202 9.3411451 22.38818359 13.01025391 C23.00930196 15.03025178 23.62399527 17.05213384 24.23828125 19.07421875 C26.23723513 25.61335394 28.30872241 32.0525354 30.96875 38.359375 C32.7850971 43.01032439 34.19254204 47.81014549 35.65625 52.58203125 C37.00808697 56.51521658 37.00808697 56.51521658 41 61 C33.74 61 26.48 61 19 61 C20.98 58.525 20.98 58.525 23 56 C23.9072597 51.28224956 22.95580637 48.38828811 20.5625 44.375 C15.12055746 36.87636087 7.82478842 34.54083607 -1 33 C-1.12246094 33.69351563 -1.24492187 34.38703125 -1.37109375 35.1015625 C-2.06138267 38.28289406 -3.03874122 41.28537674 -4.0625 44.375 C-6.19745208 51.09415437 -6.19745208 51.09415437 -6 58 C-4.68 58.99 -3.36 59.98 -2 61 C-8.6 61 -15.2 61 -22 61 C-19.525 58.525 -19.525 58.525 -17 56 C-10.47432135 44.28543941 -6.67345024 30.51484817 -2.08569336 17.95410156 C-1.15385544 15.41863074 -0.20339444 12.89161592 0.7578125 10.3671875 C1.79780611 7.54808533 2.53749836 4.96001049 3 2 C2.01 1.67 1.02 1.34 0 1 C0 0.67 0 0.34 0 0 Z " fill="#B9F36B" transform="translate(470,78)"/>
<path d="M0 0 C7.26 0 14.52 0 22 0 C21.67 0.66 21.34 1.32 21 2 C20.34 2 19.68 2 19 2 C20.12529591 5.6713565 21.25558202 9.3411451 22.38818359 13.01025391 C23.00930196 15.03025178 23.62399527 17.05213384 24.23828125 19.07421875 C26.23723513 25.61335394 28.30872241 32.0525354 30.96875 38.359375 C32.7850971 43.01032439 34.19254204 47.81014549 35.65625 52.58203125 C37.00808697 56.51521658 37.00808697 56.51521658 41 61 C33.74 61 26.48 61 19 61 C20.98 58.525 20.98 58.525 23 56 C23.9072597 51.28224956 22.95580637 48.38828811 20.5625 44.375 C15.12055746 36.87636087 7.82478842 34.54083607 -1 33 C-1.12246094 33.69351563 -1.24492187 34.38703125 -1.37109375 35.1015625 C-2.06138267 38.28289406 -3.03874122 41.28537674 -4.0625 44.375 C-6.19745208 51.09415437 -6.19745208 51.09415437 -6 58 C-4.68 58.99 -3.36 59.98 -2 61 C-8.6 61 -15.2 61 -22 61 C-19.525 58.525 -19.525 58.525 -17 56 C-10.47432135 44.28543941 -6.67345024 30.51484817 -2.08569336 17.95410156 C-1.15385544 15.41863074 -0.20339444 12.89161592 0.7578125 10.3671875 C1.79780611 7.54808533 2.53749836 4.96001049 3 2 C2.01 1.67 1.02 1.34 0 1 C0 0.67 0 0.34 0 0 Z " fill="#B9F36B" transform="translate(345,78)"/>
<path d="M0 0 C6.93 0 13.86 0 21 0 C20.67 0.66 20.34 1.32 20 2 C20.23954046 10.17099134 22.93060022 17.5722552 25.55541992 25.22875977 C26.30861618 27.42616916 27.04900621 29.62755864 27.78710938 31.83007812 C32.3226469 47.5546305 32.3226469 47.5546305 41 61 C33.74 61 26.48 61 19 61 C19.99 60.01 20.98 59.02 22 58 C22.90418456 53.26728623 22.51155574 49.10837077 20.5 44.75 C16.28368682 40.1120555 11.18134249 35.62666908 5 34 C1.79129767 33.83242243 1.79129767 33.83242243 -1 34 C-1.18175781 34.64066406 -1.36351562 35.28132813 -1.55078125 35.94140625 C-2.72855534 39.9941571 -3.88364633 43.92754817 -5.6875 47.75 C-7.08515735 51.21086581 -7.57303803 53.31618409 -7 57 C-5.68 58.32 -4.36 59.64 -3 61 C-8.61 61 -14.22 61 -20 61 C-20.33 60.34 -20.66 59.68 -21 59 C-20.401875 58.443125 -19.80375 57.88625 -19.1875 57.3125 C-15.3270184 53.23141946 -13.53178474 49.00761988 -11.875 43.6875 C-9.55876104 36.46479927 -6.96677942 29.35478751 -4.3125 22.25 C-3.91981934 21.18998779 -3.52713867 20.12997559 -3.12255859 19.0378418 C-2.74824707 18.04051025 -2.37393555 17.04317871 -1.98828125 16.015625 C-1.65352783 15.12133789 -1.31877441 14.22705078 -0.97387695 13.30566406 C0 11 0 11 2 8 C2.39013716 6.0103005 2.73202649 4.00980131 3 2 C2.01 1.67 1.02 1.34 0 1 C0 0.67 0 0.34 0 0 Z " fill="#BAF46C" transform="translate(156,78)"/>
<path d="M0 0 C8.25 0 16.5 0 25 0 C24.01 0.495 24.01 0.495 23 1 C24.56848825 5.50410476 28.08235292 7.6829758 31.75 10.4375 C32.97462134 11.37283049 34.19858523 12.30902242 35.421875 13.24609375 C36.31422852 13.92647705 36.31422852 13.92647705 37.22460938 14.62060547 C39.87484407 16.67971246 42.43678118 18.83384422 45 21 C45.13559675 18.43571485 45.23433188 15.87864784 45.3125 13.3125 C45.3753418 12.2306543 45.3753418 12.2306543 45.43945312 11.12695312 C45.45556641 10.42119141 45.47167969 9.71542969 45.48828125 8.98828125 C45.51446533 8.34415283 45.54064941 7.70002441 45.56762695 7.03637695 C44.93269924 4.11390472 44.93269924 4.11390472 40 0 C46.27 0 52.54 0 59 0 C57.35 1.32 55.7 2.64 54 4 C53.2581396 6.44444111 53.2581396 6.44444111 53.36889648 9.14819336 C53.35009682 10.68515114 53.35009682 10.68515114 53.33091736 12.25315857 C53.34417557 13.35426468 53.35743378 14.45537079 53.37109375 15.58984375 C53.36868179 16.72651993 53.36626984 17.86319611 53.36378479 19.03431702 C53.36476405 21.43754566 53.37817608 23.84079664 53.40307617 26.24389648 C53.43734194 29.92054024 53.42374775 33.59477565 53.40429688 37.27148438 C53.41119635 39.60678106 53.42086964 41.94207154 53.43359375 44.27734375 C53.42863388 45.37642563 53.42367401 46.47550751 53.41856384 47.6078949 C53.43440018 48.63568558 53.45023651 49.66347626 53.46655273 50.72241211 C53.4758506 52.07332191 53.4758506 52.07332191 53.4853363 53.45152283 C53.9405597 56.70770246 53.9405597 56.70770246 58 61 C52.06 61 46.12 61 40 61 C41.65 59.35 43.3 57.7 45 56 C45.97630857 52.92900337 45.85786742 49.89833241 45.8125 46.6875 C45.79872314 45.4049231 45.79872314 45.4049231 45.78466797 44.09643555 C45.56160618 39.23807521 45.18338591 35.90697501 41.625 32.3125 C40.12068408 31.15796383 38.5766196 30.05365591 37 29 C35.45147316 27.75850866 33.9100928 26.50806447 32.375 25.25 C31.5907666 24.63809814 30.8065332 24.02619629 29.99853516 23.39575195 C26.48310487 20.58701417 23.07197242 17.67181787 19.6640625 14.734375 C19.02057861 14.18120605 18.37709473 13.62803711 17.71411133 13.05810547 C16.14192778 11.70634877 14.57084977 10.35330643 13 9 C12.87296767 15.44102868 12.78555188 21.88173302 12.7253418 28.32373047 C12.70023566 30.51395744 12.66614363 32.70410094 12.62280273 34.89404297 C12.56198093 38.04675922 12.53375077 41.19836553 12.51171875 44.3515625 C12.48591232 45.32678864 12.4601059 46.30201477 12.43351746 47.30679321 C12.4331398 48.22729462 12.43276215 49.14779602 12.43237305 50.09619141 C12.41571846 51.30198349 12.41571846 51.30198349 12.39872742 52.53213501 C13.03711808 55.93949132 13.03711808 55.93949132 18 61 C12.06 61 6.12 61 0 61 C1.65 59.02 3.3 57.04 5 55 C5.73640877 52.43599047 5.73640877 52.43599047 5.64697266 49.80834961 C5.66273346 48.82390366 5.67849426 47.8394577 5.69473267 46.82518005 C5.68461151 45.77814407 5.67449036 44.73110809 5.6640625 43.65234375 C5.66884613 42.56288956 5.67362976 41.47343536 5.67855835 40.35096741 C5.68195276 38.05386913 5.6727827 35.75672225 5.65185547 33.4597168 C5.62505991 29.94535689 5.65163474 26.43418347 5.68359375 22.91992188 C5.68029008 20.68488879 5.67388474 18.44985769 5.6640625 16.21484375 C5.67418365 15.16578354 5.68430481 14.11672333 5.69473267 13.03587341 C5.67897186 12.05457962 5.66321106 11.07328583 5.64697266 10.06225586 C5.64299469 9.20321152 5.63901672 8.34416718 5.63491821 7.45909119 C5.00468987 4.15822006 5.00468987 4.15822006 0 0 Z " fill="#BBF66D" transform="translate(388,78)"/>
<path d="M0 0 C1.86398438 0.02707031 1.86398438 0.02707031 3.765625 0.0546875 C6.80290966 0.10141496 9.83852939 0.16691409 12.875 0.25 C14.45451737 4.04140379 15.37422933 7.49499068 16 11.5625 C16.25136719 13.16544922 16.25136719 13.16544922 16.5078125 14.80078125 C16.62898438 15.60902344 16.75015625 16.41726562 16.875 17.25 C16.215 17.25 15.555 17.25 14.875 17.25 C14.318125 16.3425 13.76125 15.435 13.1875 14.5 C9.80354895 9.74417691 5.63842821 7.40918575 -0.125 6.25 C-6.50265553 5.49075529 -11.14868824 5.97637968 -16.4375 9.76171875 C-21.17707925 13.94176434 -23.65921457 19.24847973 -24.3828125 25.46484375 C-24.81139906 34.50802014 -22.18166642 42.19360475 -16.4375 49.1875 C-11.56791237 54.22874286 -6.21851764 57.32156457 0.875 57.6875 C6.86577807 57.32877077 12.11313922 55.70545021 16.75 51.875 C18.92935002 49.30778822 18.92935002 49.30778822 20.5625 46.4375 C20.995625 45.715625 21.42875 44.99375 21.875 44.25 C22.535 44.25 23.195 44.25 23.875 44.25 C23.17007717 48.32629287 22.01703864 52.10581595 20.625 56 C20.22796875 57.14984375 19.8309375 58.2996875 19.421875 59.484375 C17.875 62.25 17.875 62.25 15.8359375 63.12109375 C14.85882813 63.16363281 13.88171875 63.20617187 12.875 63.25 C12.15119141 63.29044434 11.42738281 63.33088867 10.68164062 63.37255859 C-2.75386116 63.99398988 -14.48125319 63.80447998 -25.34375 54.9453125 C-32.49287666 48.14109985 -36.11851604 41.00624811 -36.57836914 31.12988281 C-36.76361749 22.1720098 -35.59025246 15.45190579 -29.5859375 8.45703125 C-21.16397251 0.37433973 -11.13850923 -0.31006557 0 0 Z " fill="#BAF46C" transform="translate(233.125,76.75)"/>
<path d="M0 0 C2 1.125 2 1.125 4 3.125 C4.55297926 6.09726354 4.51428785 8.15526232 3.078125 10.86328125 C-1.96485569 17.55264681 -10.03950108 21.13487527 -18 23.125 C-18 15.865 -18 8.605 -18 1.125 C-11.82833748 -1.34366501 -6.43174624 -1.87592599 0 0 Z " fill="#3D3402" transform="translate(114,82.875)"/>
<path d="M0 0 C1.69312859 3.12577586 2.92043116 6.37376411 4.1328125 9.7109375 C4.75607554 11.35612731 5.42299707 12.98502114 6.1171875 14.6015625 C6.67792969 15.91253906 6.67792969 15.91253906 7.25 17.25 C7.60578125 18.05953125 7.9615625 18.8690625 8.328125 19.703125 C9.07526613 22.25730514 8.88482454 23.52702884 8 26 C7.00419922 25.58427734 7.00419922 25.58427734 5.98828125 25.16015625 C5.10527344 24.79792969 4.22226563 24.43570313 3.3125 24.0625 C2.44238281 23.70285156 1.57226562 23.34320313 0.67578125 22.97265625 C-1.88179265 22.0429688 -4.3221323 21.45837375 -7 21 C-6.25117431 16.60915843 -4.91962397 12.4601991 -3.5 8.25 C-3.27441406 7.56550781 -3.04882812 6.88101563 -2.81640625 6.17578125 C-1.12672061 1.12672061 -1.12672061 1.12672061 0 0 Z " fill="#403906" transform="translate(164,86)"/>
<path d="M0 0 C0.66 0 1.32 0 2 0 C2.18175781 0.71285156 2.36351562 1.42570312 2.55078125 2.16015625 C4.21242248 8.58472816 4.21242248 8.58472816 6.625 14.75 C8 18 8 18 9 25 C3.72 23.68 -1.56 22.36 -7 21 C-4.66666667 14 -2.33333333 7 0 0 Z " fill="#403906" transform="translate(478,86)"/>
<path d="M0 0 C0.66 0 1.32 0 2 0 C2.18175781 0.71285156 2.36351562 1.42570312 2.55078125 2.16015625 C4.21242248 8.58472816 4.21242248 8.58472816 6.625 14.75 C8 18 8 18 9 25 C3.72 23.68 -1.56 22.36 -7 21 C-4.66666667 14 -2.33333333 7 0 0 Z " fill="#403906" transform="translate(353,86)"/>
</svg>
